<svg width="34" height="38" viewBox="0 0 34 38" fill="none" xmlns="http://www.w3.org/2000/svg" xmlns:xlink="http://www.w3.org/1999/xlink">
<path d="M16.939,36.902L1.374,36.902C0.383,36.902 -0.42,35.981 -0.42,34.844L-0.42,1.661C-0.42,0.524 0.383,-0.398 1.374,-0.398L30.286,-0.398C31.277,-0.398 32.08,0.524 32.08,1.661L32.08,34.844C32.08,35.981 31.277,36.902 30.286,36.902L22.005,36.902L22.005,22.458L26.229,22.458L26.862,16.828L22.005,16.828L22.005,13.234C22.005,11.604 22.399,10.494 24.435,10.494L27.033,10.492L27.033,5.458C26.583,5.389 25.042,5.236 23.248,5.236C19.503,5.236 16.939,7.859 16.939,12.677L16.939,16.828L12.704,16.828L12.704,22.458L16.939,22.458L16.939,36.902L16.939,36.902Z" fill="#D6AD60"/>
</svg>
