<svg width="34" height="24" viewBox="0 0 34 24" fill="none" xmlns="http://www.w3.org/2000/svg" xmlns:xlink="http://www.w3.org/1999/xlink">
<path d="M16.817,13.539C15.202,13.539 11.236,13.545 11.236,13.545L11.236,9.031L21.15,9.031C21.84,14.493 19.758,22.686 11.236,22.686C5.536,22.686 0.914,17.583 0.914,11.288C0.914,4.994 5.536,-0.109 11.236,-0.109C13.911,-0.109 16.349,1.014 18.183,2.857C16.761,4.339 16.306,4.904 15.919,5.384C15.717,5.633 15.535,5.86 15.244,6.181C14.183,5.212 13.027,4.518 11.236,4.518C7.85,4.518 5.207,7.549 5.207,11.288C5.207,15.028 7.85,18.059 11.236,18.059C14.583,18.059 15.943,16.465 16.817,13.539ZM29.837,5.307L29.837,9.257L33.414,9.257L33.414,12.078L29.837,12.078L29.837,16.141L27.282,16.141L27.282,12.078L23.603,12.078L23.603,9.257L27.282,9.257L27.282,5.307L29.837,5.307Z" clip-rule="evenodd" fill-rule="evenodd" fill="#D6AD60"/>
</svg>
