<svg width="34" height="38" viewBox="0 0 34 38" fill="none" xmlns="http://www.w3.org/2000/svg" xmlns:xlink="http://www.w3.org/1999/xlink">
<path d="M16.498,-0.398C12.085,-0.398 11.531,-0.376 9.798,-0.286C8.069,-0.195 6.887,0.12 5.854,0.581C4.785,1.058 3.879,1.695 2.975,2.732C2.072,3.769 1.516,4.809 1.101,6.036C0.699,7.222 0.425,8.578 0.346,10.563C0.267,12.552 0.248,13.187 0.248,18.252C0.248,23.317 0.267,23.952 0.346,25.942C0.425,27.927 0.699,29.283 1.101,30.469C1.516,31.695 2.072,32.735 2.975,33.772C3.879,34.809 4.785,35.447 5.854,35.923C6.887,36.384 8.069,36.7 9.798,36.79C11.531,36.881 12.085,36.902 16.498,36.902C20.911,36.902 21.465,36.881 23.198,36.79C24.927,36.7 26.109,36.384 27.142,35.923C28.211,35.447 29.117,34.809 30.021,33.772C30.924,32.735 31.48,31.695 31.895,30.469C32.297,29.283 32.571,27.927 32.65,25.942C32.729,23.952 32.748,23.317 32.748,18.252C32.748,13.187 32.729,12.552 32.65,10.563C32.571,8.578 32.297,7.222 31.895,6.036C31.48,4.809 30.924,3.769 30.021,2.732C29.117,1.695 28.211,1.058 27.142,0.581C26.109,0.12 24.927,-0.195 23.198,-0.286C21.465,-0.376 20.911,-0.398 16.498,-0.398ZM16.498,2.962C20.837,2.962 21.351,2.981 23.064,3.071C24.649,3.154 25.509,3.458 26.082,3.713C26.84,4.052 27.382,4.456 27.95,5.108C28.519,5.761 28.871,6.382 29.166,7.253C29.388,7.91 29.653,8.898 29.725,10.716C29.804,12.683 29.82,13.272 29.82,18.252C29.82,23.232 29.804,23.822 29.725,25.789C29.653,27.607 29.388,28.594 29.166,29.252C28.871,30.122 28.519,30.743 27.95,31.396C27.382,32.049 26.84,32.453 26.082,32.791C25.509,33.047 24.649,33.35 23.064,33.433C21.351,33.523 20.837,33.542 16.498,33.542C12.159,33.542 11.645,33.523 9.932,33.433C8.347,33.35 7.487,33.047 6.914,32.791C6.156,32.453 5.614,32.049 5.046,31.396C4.477,30.743 4.125,30.122 3.83,29.252C3.608,28.594 3.343,27.607 3.271,25.789C3.193,23.822 3.176,23.232 3.176,18.252C3.176,13.272 3.193,12.683 3.271,10.716C3.343,8.898 3.608,7.91 3.83,7.253C4.125,6.382 4.477,5.761 5.046,5.108C5.614,4.456 6.156,4.052 6.914,3.713C7.487,3.458 8.347,3.154 9.932,3.071C11.645,2.981 12.159,2.962 16.498,2.962ZM8.153,18.252C8.153,12.963 11.889,8.675 16.498,8.675C21.107,8.675 24.843,12.963 24.843,18.252C24.843,23.542 21.107,27.829 16.498,27.829C11.889,27.829 8.153,23.542 8.153,18.252ZM16.498,24.469C13.507,24.469 11.081,21.686 11.081,18.252C11.081,14.819 13.507,12.036 16.498,12.036C19.49,12.036 21.915,14.819 21.915,18.252C21.915,21.686 19.49,24.469 16.498,24.469ZM25.172,10.535C26.249,10.535 27.122,9.533 27.122,8.297C27.122,7.061 26.249,6.059 25.172,6.059C24.095,6.059 23.222,7.061 23.222,8.297C23.222,9.533 24.095,10.535 25.172,10.535Z" clip-rule="evenodd" fill-rule="evenodd" fill="#D6AD60"/>
</svg>
