<svg width="34" height="34" viewBox="0 0 34 34" fill="none" xmlns="http://www.w3.org/2000/svg" xmlns:xlink="http://www.w3.org/1999/xlink">
<path d="M4.74,7.489L4.694,7.489C2.401,7.489 0.914,5.768 0.914,3.585C0.914,1.36 2.445,-0.326 4.784,-0.326C7.121,-0.326 8.558,1.356 8.603,3.579C8.603,5.761 7.121,7.489 4.74,7.489ZM33.414,32.83L26.231,32.83L26.231,21.175C26.231,18.124 25.107,16.041 22.637,16.041C20.747,16.041 19.696,17.447 19.207,18.801C19.045,19.229 19.048,19.805 19.051,20.399L19.051,20.399C19.052,20.48 19.052,20.561 19.052,20.642L19.052,32.83L11.936,32.83C11.936,32.83 12.028,12.183 11.936,10.307L19.052,10.307L19.052,13.842C19.472,12.296 21.746,10.09 25.375,10.09C29.877,10.09 33.414,13.33 33.414,20.306L33.414,32.83ZM8.068,10.307L1.734,10.307L1.734,32.83L8.068,32.83L8.068,10.307Z" clip-rule="evenodd" fill-rule="evenodd" fill="#D6AD60"/>
</svg>
