<svg width="32" height="40" viewBox="0 0 32 40" fill="none" xmlns="http://www.w3.org/2000/svg" xmlns:xlink="http://www.w3.org/1999/xlink">
<path d="M28.331,26.384L23.745,25.783C22.643,25.638 21.56,26.073 20.784,26.964L17.461,30.777C12.352,27.793 8.163,23.006 5.563,17.121L8.903,13.287C9.679,12.396 10.059,11.153 9.932,9.889L9.409,4.667C9.192,2.574 7.657,0.999 5.816,0.999L2.692,0.999C0.652,0.999 -1.046,2.947 -0.919,5.289C0.038,22.986 12.37,37.118 27.771,38.217C29.811,38.362 31.509,36.414 31.509,34.072L31.509,30.487C31.527,28.394 30.154,26.633 28.331,26.384Z" clip-rule="evenodd" fill-rule="evenodd" fill="#D6AD60"/>
</svg>
