<svg width="34" height="38" viewBox="0 0 34 38" fill="none" xmlns="http://www.w3.org/2000/svg" xmlns:xlink="http://www.w3.org/1999/xlink">
<path d="M15.831,-0.398C6.857,-0.398 -0.42,7.952 -0.42,18.253C-0.42,25.888 3.582,32.45 9.309,35.334C9.263,34.034 9.301,32.468 9.59,31.051C9.903,29.538 11.68,20.89 11.68,20.89C11.68,20.89 11.163,19.699 11.163,17.938C11.163,15.174 12.559,13.11 14.297,13.11C15.774,13.11 16.488,14.384 16.488,15.911C16.488,17.615 15.541,20.166 15.053,22.528C14.646,24.508 15.917,26.12 17.618,26.12C20.696,26.12 22.77,21.583 22.77,16.205C22.77,12.119 20.371,9.059 16.009,9.059C11.08,9.059 8.009,13.277 8.009,17.988C8.009,19.615 8.426,20.76 9.08,21.646C9.381,22.056 9.422,22.219 9.313,22.688C9.236,23.028 9.057,23.857 8.982,24.184C8.873,24.655 8.541,24.826 8.17,24.651C5.898,23.587 4.841,20.734 4.841,17.525C4.841,12.229 8.734,5.873 16.454,5.873C22.659,5.873 26.743,11.029 26.743,16.558C26.743,23.875 23.2,29.34 17.973,29.34C16.221,29.34 14.57,28.252 14.004,27.018C14.004,27.018 13.06,31.314 12.861,32.143C12.517,33.58 11.843,35.018 11.226,36.137C12.687,36.633 14.232,36.902 15.831,36.902C24.805,36.902 32.08,28.553 32.08,18.253C32.08,7.952 24.805,-0.398 15.831,-0.398Z" fill="#D6AD60"/>
</svg>
