<svg width="34" height="38" viewBox="0 0 34 38" fill="none" xmlns="http://www.w3.org/2000/svg" xmlns:xlink="http://www.w3.org/1999/xlink">
<path d="M32.746,36.902L26.556,36.902C26.556,20.252 14.754,6.706 0.246,6.706L0.246,-0.398C18.167,-0.398 32.746,16.335 32.746,36.902ZM0.246,31.574C0.246,28.631 2.325,26.245 4.889,26.245C7.453,26.245 9.532,28.631 9.532,31.574C9.532,34.517 7.453,36.902 4.889,36.902C2.325,36.902 0.246,34.517 0.246,31.574ZM15.723,36.902L21.913,36.902C21.913,23.191 12.193,12.035 0.246,12.035L0.246,19.141C8.78,19.141 15.723,27.108 15.723,36.902Z" clip-rule="evenodd" fill-rule="evenodd" fill="#D6AD60"/>
</svg>
