<svg width="36" height="40" viewBox="0 0 36 40" fill="none" xmlns="http://www.w3.org/2000/svg" xmlns:xlink="http://www.w3.org/1999/xlink">
<path d="M8.803,0.978L26.859,0.978C27.852,0.978 28.664,1.911 28.664,3.051L28.664,7.195C28.664,8.335 27.852,9.267 26.859,9.267L8.803,9.267C7.81,9.267 6.998,8.335 6.998,7.195L6.998,3.051C6.998,1.911 7.81,0.978 8.803,0.978ZM5.192,11.34L30.47,11.34C33.467,11.34 35.887,14.116 35.887,17.556L35.887,25.845C35.887,28.125 34.262,29.99 32.275,29.99L28.664,29.99L28.664,34.134C28.664,36.414 27.039,38.279 25.053,38.279L10.609,38.279C8.623,38.279 6.998,36.414 6.998,34.134L6.998,29.99L3.387,29.99C1.4,29.99 -0.225,28.125 -0.225,25.845L-0.225,17.556C-0.225,14.116 2.195,11.34 5.192,11.34ZM12.414,34.134L23.248,34.134C24.241,34.134 25.053,33.202 25.053,32.062L25.053,23.773L10.609,23.773L10.609,32.062C10.609,33.202 11.421,34.134 12.414,34.134ZM30.47,19.628C29.477,19.628 28.664,18.696 28.664,17.556C28.664,16.417 29.477,15.484 30.47,15.484C31.463,15.484 32.275,16.417 32.275,17.556C32.275,18.696 31.463,19.628 30.47,19.628Z" clip-rule="evenodd" fill-rule="evenodd" fill="#D6AD60"/>
</svg>
