<svg width="26" height="42" viewBox="0 0 26 42" fill="none" xmlns="http://www.w3.org/2000/svg" xmlns:xlink="http://www.w3.org/1999/xlink">
<path d="M0.637,14.522C0.637,6.502 6.288,0.016 13.276,0.016C20.263,0.016 25.915,6.502 25.915,14.522C25.915,23.163 17.934,35.079 14.666,39.617C13.944,40.612 12.626,40.612 11.903,39.617C8.617,35.079 0.637,23.163 0.637,14.522ZM8.762,14.522C8.762,17.382 10.784,19.702 13.276,19.702C15.767,19.702 17.789,17.382 17.789,14.522C17.789,11.662 15.767,9.341 13.276,9.341C10.784,9.341 8.762,11.662 8.762,14.522Z" clip-rule="evenodd" fill-rule="evenodd" fill="#D6AD60"/>
</svg>
