<svg width="34" height="32" viewBox="0 0 34 32" fill="none" xmlns="http://www.w3.org/2000/svg" xmlns:xlink="http://www.w3.org/1999/xlink">
<path d="M32.748,3.426C31.554,4.05 30.268,4.473 28.919,4.661C30.297,3.691 31.354,2.153 31.851,0.321C30.562,1.219 29.137,1.873 27.615,2.223C26.401,0.699 24.667,-0.253 22.748,-0.253C19.069,-0.253 16.083,3.26 16.083,7.593C16.083,8.208 16.14,8.806 16.255,9.38C10.713,9.053 5.801,5.932 2.51,1.179C1.936,2.342 1.608,3.691 1.608,5.128C1.608,7.849 2.785,10.252 4.575,11.659C3.483,11.621 2.453,11.264 1.553,10.68L1.553,10.777C1.553,14.58 3.852,17.752 6.904,18.471C6.345,18.655 5.755,18.747 5.147,18.747C4.718,18.747 4.298,18.7 3.892,18.608C4.74,21.724 7.201,23.994 10.12,24.055C7.838,26.16 4.962,27.415 1.839,27.415C1.301,27.415 0.769,27.38 0.248,27.308C3.199,29.53 6.705,30.83 10.469,30.83C22.735,30.83 29.44,18.875 29.44,8.505C29.44,8.164 29.434,7.822 29.423,7.488C30.726,6.381 31.857,5 32.748,3.426Z" fill="#D6AD60"/>
</svg>
